<?xml version="1.0" encoding="UTF-8"?>
<svg id="Layer_2" data-name="Layer 2" xmlns="http://www.w3.org/2000/svg" viewBox="0 0 499.4 498.63">
  <defs>
    <style>
      .cls-1 {
        fill: #ff093e;
      }

      .cls-2 {
        fill: #0031e1;
      }

      .cls-3 {
        fill: #fff;
      }
    </style>
  </defs>
  <g id="Layer_2-2" data-name="Layer 2">
    <polygon class="cls-1" points="499.4 139.77 499.4 358.86 249.68 498.63 249.68 0 499.4 139.77"/>
    <polygon class="cls-2" points="249.71 0 249.71 498.63 0 358.86 0 139.77 249.71 0"/>
    <path class="cls-3" d="M93.94,117.81c10.97-4.96,20.87-9.23,29.79-12.77,9.46-3.75,17.64-6.61,24.8-8.59s13.7-3.15,19.06-3.33,10.06.61,14.11,2.26c4.43,1.69,8.25,4.17,11.5,7.61s5.99,7.97,8.11,13.58,3.69,12.47,4.7,20.55,1.49,17.51,1.49,28.29c0,12.37-.69,22.83-2.3,31.74s-4.08,16.06-7.63,22.04-7.97,10.46-13.57,14.15-11.88,6.26-19.39,8.38c9.28,2.65,17.02,5.51,23.4,9.18s11.65,8.43,15.43,14.54c3.85,6.23,6.34,13.93,7.87,23.78,1.54,9.93,2.08,21.94,2.08,36.76,0,12.95-.69,23.89-2.21,33.05-1.51,9.09-3.83,16.36-7.09,22.05s-7.28,9.62-12.31,12.34-10.67,4.04-17.34,4.46c-4.8.39-10.62-.11-17.72-1.56-6.82-1.39-14.71-3.64-23.81-6.74-8.62-2.94-18.18-6.61-28.74-10.98-9.85-4.07-20.41-8.68-31.66-13.76-8.01-3.62-14.46-6.8-19.74-9.76-5.06-2.84-9.13-5.52-12.47-8.22s-5.83-5.27-7.96-8.11-3.75-5.76-5.16-9.04c-1.16-2.81-2.09-5.59-2.84-8.75s-1.31-6.65-1.74-10.92-.7-9.27-.88-15.42-.25-13.44-.25-22.26l27.51,3.4.16,3.82c0,3.4.03,6.18.11,8.49s.21,4.17.4,5.74.45,2.84.8,3.99.78,2.19,1.31,3.27c.58.77,1.09,1.41,1.66,1.97s1.2,1.04,1.99,1.49,1.77.88,3.03,1.33,2.86.94,4.87,1.52l11.94,3.24,11.6,3.17c9.44,1.93,16.95,3.46,22.91,4.61s10.58,1.95,13.75,2.32,5.17.35,6.57,0,2.3-1.03,3.48-1.94c1.11-.72,2.04-1.56,2.81-2.6s1.39-2.27,1.86-3.74.81-3.21,1.02-5.26.31-4.4.31-7.13c0-3.27-.15-6.13-.48-8.63s-.83-4.62-1.53-6.44-1.59-3.32-2.69-4.56-2.4-2.23-3.93-3.01c-1.15-.64-2.12-1.13-3.47-1.57s-3.03-.81-5.62-1.23-5.93-.86-10.6-1.42c-4.53-.55-10.19-1.2-17.29-2.01l-24.32-2.14v-49.15s32.74-3.31,32.74-3.31c6.21-.63,11.42-1.41,15.74-2.52s7.88-2.64,10.49-4.66,4.42-4.65,5.52-7.97,1.54-7.39,1.54-12.35c0-5.5-.26-9.67-1.45-12.67s-3.26-4.75-6.85-5.46-8.39-.37-15.1.8-14.38,3-24.08,5.41c-7.95,1.97-13.96,3.51-18.6,4.8s-7.74,2.29-10.19,3.29-4.04,1.91-5.23,2.94-1.94,2.14-2.56,3.48c-.45.98-.79,1.72-1.05,2.56s-.44,1.8-.59,3.22-.24,3.3-.34,6.01-.19,6.22-.31,10.91l-27.57,3.67v-10.93c0-12.33.44-22.17,1.83-30.26s3.85-14.76,7.93-20.52,10.39-11.27,19.42-16.87c9.76-6.04,23.4-12.75,43.02-21.62Z"/>
    <path class="cls-3" d="M474.72,189.27c.42,3.29.76,6.47,1.03,9.84s.48,6.92.64,10.99.26,8.63.33,14.01.09,11.58.09,18.89c0,11.68-.1,21.6-.34,30.11-.24,8.53-.61,15.67-1.16,21.78s-1.27,11.28-2.21,15.76-2.11,8.4-3.53,12.01c-1.5,3.75-3.09,6.95-5.06,9.81s-4.43,5.5-7.61,8.01-7.4,5.13-12.83,7.94-12.91,6.23-22.37,10.28l-122.94,52.57V79.84s122.94,52.57,122.94,52.57c7.21,3.08,12.6,5.41,16.79,7.29s7.07,3.26,9.51,4.57,4.25,2.44,5.99,3.71,3.31,2.59,5.15,4.23c2.1,1.8,4,3.95,5.69,6.43s3.14,5.23,4.42,8.33,2.36,6.47,3.27,10.2,1.64,7.73,2.2,12.1ZM422.05,300.95c7.77-1.63,13.43-3.02,17.61-4.93s6.78-4.23,8.65-7.86,2.86-8.38,3.42-15.13.67-15.41.67-26.73c0-6.15-.06-11.45-.19-16.07s-.34-8.54-.63-11.92-.67-6.23-1.15-8.67-1.07-4.5-1.77-6.3c-.74-1.96-1.54-3.57-2.6-4.93s-2.42-2.49-4.25-3.5-4.26-1.92-7.43-2.83-7.36-1.89-12.66-3.03l-60.18-12.85v137.41s60.52-12.69,60.52-12.69"/>
  </g>
</svg>